<?xml version="1.0" encoding="utf-8"?>
<!-- Generator: Adobe Illustrator 24.0.1, SVG Export Plug-In . SVG Version: 6.00 Build 0)  -->
<svg version="1.1" id="ico" xmlns="http://www.w3.org/2000/svg" xmlns:xlink="http://www.w3.org/1999/xlink" x="0px" y="0px"
	 width="50px" height="50px" viewBox="0 0 50 50" style="enable-background:new 0 0 50 50;" xml:space="preserve">
<path d="M21.607,34.52c2.543,0,5.082-0.751,7.266-2.239l8.84,8.84c0.127,0.127,0.294,0.19,0.46,0.19s0.333-0.063,0.46-0.19
	l2.489-2.489c0.121-0.122,0.19-0.287,0.19-0.459s-0.069-0.338-0.19-0.459l-8.841-8.84c3.423-5.026,2.915-11.947-1.538-16.401
	c-5.037-5.037-13.234-5.037-18.271,0c-5.036,5.037-5.036,13.233,0,18.27C14.99,33.261,18.299,34.52,21.607,34.52z M39.743,38.172
	l-1.57,1.57l-8.255-8.255c0.282-0.237,0.56-0.48,0.825-0.745c0.265-0.265,0.508-0.543,0.744-0.824L39.743,38.172z M13.392,13.391
	c2.265-2.265,5.24-3.397,8.216-3.397s5.951,1.133,8.216,3.397c4.53,4.531,4.53,11.902,0,16.432c-4.529,4.53-11.902,4.529-16.432,0
	C8.861,25.293,8.861,17.922,13.392,13.391z M21.607,30.933c2.49,0,4.833-0.97,6.595-2.731c3.636-3.636,3.636-9.552,0-13.188
	c-3.637-3.636-9.553-3.635-13.189,0c-3.636,3.636-3.636,9.552,0,13.188C16.774,29.963,19.116,30.933,21.607,30.933z M15.933,15.932
	c1.564-1.564,3.619-2.347,5.675-2.347c2.055,0,4.11,0.782,5.675,2.347c3.129,3.129,3.129,8.221,0,11.35
	c-1.516,1.516-3.531,2.351-5.675,2.351c-2.145,0-4.159-0.835-5.675-2.351C12.804,24.153,12.804,19.062,15.933,15.932z
	 M16.227,20.644c0-2.937,2.389-5.325,5.325-5.325c0.359,0,0.65,0.291,0.65,0.65s-0.291,0.65-0.65,0.65
	c-2.22,0-4.024,1.806-4.024,4.025c0,0.359-0.291,0.65-0.65,0.65S16.227,21.002,16.227,20.644z"/>
</svg>
